<svg xmlns="http://www.w3.org/2000/svg" viewbox="0 0 480 120">
  <svg x="0" width="120" height="120" viewBox="0 0 200 200"><g clip-path="circle() view-box"><rect width="100%" height="100%" fill="#d4af36"/><g fill="#fff"><path d="M0 59.7v14h200v-14"/><path d="M93 0h14v200H93"/><g stroke="#fff" stroke-width="3"><path d="m279.8 154.4-14 24.1L-65.8-45.1l-14 24.1z"/><path d="m211.8 232.5-24.1 14L12.3-113.1l-24.1 14z"/><path d="m-79.8 154.4 14 24.1L265.8-45.1l14 24.1z"/><path d="m-11.8 232.5 24.1 14 175.4-359.6 24.1 14z"/></g></g><circle cx="100" cy="66.7" r="62.95" fill="none" stroke="#fff" stroke-width="7.5"/><g fill="#0d0d0e" stroke="#272728"><path d="m96.5 1 6.5 6.5v194h-6.5z"/><path d="m38.3 63.2-4.5 6.5h128.3l4.5-6.5z"/></g></g></svg>
  <g fill="currentColor">
    <svg x="136" y="-14.1" width="70.5%" viewBox="0 14.85 616.1 36.15"><path d="M17 51q-5.35 0-9.15-2.2t-5.82-6.28Q0 38.45 0 32.9q0-4.15 1.15-7.48 1.15-3.32 3.32-5.7 2.18-2.37 5.36-3.62Q13 14.85 17 14.85q2.95 0 5.68.8 2.72.8 4.72 2.3.85.55 1.12 1.32.28.78.11 1.48-.18.7-.68 1.17-.5.48-1.27.53-.78.05-1.68-.55-1.65-1.25-3.65-1.85t-4.2-.6q-3.8 0-6.4 1.57-2.6 1.58-3.95 4.58t-1.35 7.3 1.35 7.32q1.35 3.03 3.95 4.6 2.6 1.58 6.4 1.58 2.2 0 4.23-.63 2.02-.62 3.82-1.87.9-.55 1.63-.5.72.05 1.22.5t.68 1.12q.17.68-.05 1.4-.23.73-.98 1.23-2.05 1.65-4.85 2.5T17 51m20.6-.1q-1.25 0-1.92-.7-.68-.7-.68-1.95V17.6q0-1.3.68-1.98.67-.67 1.92-.67t1.93.67q.67.68.67 1.98v12.9h19.75V17.6q0-1.3.68-1.98.67-.67 1.92-.67t1.9.67q.65.68.65 1.98v30.65q0 1.25-.65 1.95t-1.9.7-1.92-.7q-.68-.7-.68-1.95v-13.4H40.2v13.4q0 1.25-.65 1.95t-1.95.7m38.35 0q-1.25 0-1.92-.7-.68-.7-.68-1.95v-30.3q0-1.3.7-1.98.7-.67 1.95-.67h11.95q5.7 0 8.8 2.7t3.1 7.65q0 3.2-1.4 5.5t-4.07 3.5q-2.68 1.2-6.43 1.2l.45-.7h1.3q2 0 3.47 1 1.48 1 2.68 3.2l4.3 8q.5.9.48 1.72-.03.83-.6 1.33-.58.5-1.63.5-1.1 0-1.77-.48-.68-.47-1.23-1.42l-5.25-9.7q-1.05-1.95-2.4-2.63Q86.4 36 84.2 36h-5.65v12.25q0 1.25-.65 1.95t-1.95.7m2.6-18.8h8.55q3.8 0 5.75-1.6t1.95-4.75q0-3.1-1.95-4.7t-5.75-1.6h-8.55zm31.25 18.8q-1.25 0-1.92-.7-.68-.7-.68-1.95V17.6q0-1.3.68-1.98.67-.67 1.92-.67t1.92.67q.68.68.68 1.98v30.65q0 1.25-.65 1.95t-1.95.7m22.55.1q-2.3 0-4.5-.35t-4.15-1.08q-1.95-.72-3.5-1.77-.75-.55-1.03-1.25-.27-.7-.14-1.38.12-.67.57-1.17t1.1-.62q.65-.13 1.45.42 2.25 1.45 4.75 2.12 2.5.68 5.45.68 4.25 0 6.28-1.53 2.02-1.52 2.02-3.97 0-2-1.45-3.18-1.45-1.17-4.85-1.87l-5.35-1.1q-4.75-1-7.08-3.3-2.32-2.3-2.32-6.2 0-2.35.98-4.3.97-1.95 2.72-3.38 1.75-1.42 4.2-2.17t5.35-.75q3.1 0 5.83.8 2.72.8 4.87 2.45.65.45.88 1.12.22.68.1 1.33-.13.65-.58 1.1t-1.15.52q-.7.08-1.55-.47-1.95-1.3-3.97-1.88-2.03-.57-4.48-.57t-4.27.75q-1.83.75-2.81 2.1-.97 1.35-.97 3.2 0 2.1 1.35 3.35t4.5 1.9l5.3 1.1q5 1.05 7.45 3.25t2.45 5.85q0 2.35-.95 4.22-.95 1.88-2.7 3.23t-4.22 2.07q-2.48.73-5.58.73m29.8-.1q-1.25 0-1.93-.7-.67-.7-.67-1.95v-28.6h-10.6q-1.05 0-1.65-.58-.6-.57-.6-1.62t.6-1.6 1.65-.55h26.35q1.1 0 1.7.55t.6 1.6-.6 1.62q-.6.58-1.7.58h-10.6v28.6q0 1.25-.63 1.95-.62.7-1.92.7m21.95 0q-1.25 0-1.92-.7-.68-.7-.68-1.95V17.6q0-1.3.68-1.98.67-.67 1.92-.67t1.93.67q.67.68.67 1.98v30.65q0 1.25-.65 1.95t-1.95.7m10.6 0q-1 0-1.6-.45t-.7-1.2.3-1.7l13.55-30.4q.5-1.2 1.28-1.7.77-.5 1.72-.5.9 0 1.68.5.77.5 1.27 1.7l13.55 30.4q.45.95.35 1.72-.1.78-.65 1.2-.55.43-1.55.43-1.1 0-1.75-.55t-1.15-1.7l-3.5-8.1 2.35 1.4h-21.3l2.3-1.4-3.45 8.1q-.5 1.2-1.1 1.73-.6.52-1.6.52m14.45-29.85-7.55 17.9-1.25-1.2H218l-1.15 1.2-7.6-17.9zm25 29.85q-1.15 0-1.8-.65t-.65-1.85V17.55q0-1.25.63-1.93.62-.67 1.67-.67.9 0 1.38.32.47.33 1.12 1.18l20.6 27.15h-1.25V17.4q0-1.15.63-1.8.62-.65 1.77-.65 1.2 0 1.8.65t.6 1.8v31.05q0 1.15-.57 1.8-.58.65-1.53.65-.9 0-1.47-.35-.58-.35-1.23-1.2l-20.5-27.1h1.15V48.4q0 1.2-.6 1.85t-1.75.65m46.45.1q-2.3 0-4.5-.35t-4.15-1.08q-1.95-.72-3.5-1.77-.75-.55-1.02-1.25-.28-.7-.16-1.38.13-.67.58-1.17t1.1-.62q.65-.13 1.45.42 2.25 1.45 4.75 2.12 2.5.68 5.45.68 4.25 0 6.28-1.53 2.02-1.52 2.02-3.97 0-2-1.45-3.18-1.45-1.17-4.85-1.87l-5.35-1.1q-4.75-1-7.07-3.3-2.33-2.3-2.33-6.2 0-2.35.97-4.3.98-1.95 2.73-3.38 1.75-1.42 4.2-2.17t5.35-.75q3.1 0 5.83.8 2.72.8 4.87 2.45.65.45.88 1.12.22.68.09 1.33-.12.65-.57 1.1t-1.15.52q-.7.08-1.55-.47-1.95-1.3-3.98-1.88-2.02-.57-4.47-.57t-4.28.75q-1.82.75-2.79 2.1-.98 1.35-.98 3.2 0 2.1 1.35 3.35t4.5 1.9l5.3 1.1q5 1.05 7.45 3.25t2.45 5.85q0 2.35-.95 4.22-.95 1.88-2.7 3.23t-4.22 2.07q-2.48.73-5.58.73m48.35 0q-5.35 0-9.15-2.2t-5.82-6.28q-2.03-4.07-2.03-9.62 0-4.15 1.15-7.48 1.15-3.32 3.33-5.7 2.17-2.37 5.35-3.62 3.17-1.25 7.17-1.25 2.95 0 5.68.8 2.72.8 4.72 2.3.85.55 1.13 1.32.27.78.09 1.48-.17.7-.67 1.17-.5.48-1.27.53-.78.05-1.68-.55-1.65-1.25-3.65-1.85t-4.2-.6q-3.8 0-6.4 1.57-2.6 1.58-3.95 4.58t-1.35 7.3 1.35 7.32q1.35 3.03 3.95 4.6 2.6 1.58 6.4 1.58 2.2 0 4.22-.63 2.03-.62 3.83-1.87.9-.55 1.63-.5.72.05 1.22.5t.68 1.12q.17.68-.05 1.4-.23.73-.98 1.23-2.05 1.65-4.85 2.5t-5.85.85m32.2 0q-5 0-8.72-2.23-3.73-2.22-5.75-6.3-2.03-4.07-2.03-9.57 0-4.15 1.15-7.48 1.15-3.32 3.3-5.7 2.15-2.37 5.2-3.62t6.85-1.25q5.05 0 8.75 2.2t5.73 6.25q2.02 4.05 2.02 9.55 0 4.15-1.15 7.5t-3.32 5.75q-2.18 2.4-5.23 3.65t-6.8 1.25m0-4.5q3.5 0 5.98-1.6 2.47-1.6 3.8-4.65 1.32-3.05 1.32-7.35 0-6.45-2.9-10t-8.2-3.55q-3.5 0-5.97 1.57-2.48 1.58-3.8 4.63-1.33 3.05-1.33 7.35 0 6.4 2.93 10 2.92 3.6 8.17 3.6m25.9 4.4q-1.15 0-1.8-.65t-.65-1.85V17.55q0-1.25.63-1.93.62-.67 1.67-.67.9 0 1.37.32.48.33 1.13 1.18L410 43.6h-1.25V17.4q0-1.15.63-1.8.62-.65 1.77-.65 1.2 0 1.8.65t.6 1.8v31.05q0 1.15-.57 1.8-.58.65-1.53.65-.9 0-1.47-.35-.58-.35-1.23-1.2l-20.5-27.1h1.15V48.4q0 1.2-.6 1.85t-1.75.65m50.5.1q-5.35 0-9.15-2.2t-5.83-6.28q-2.02-4.07-2.02-9.62 0-4.15 1.15-7.48 1.15-3.32 3.32-5.7 2.18-2.37 5.36-3.62 3.17-1.25 7.17-1.25 2.95 0 5.67.8 2.73.8 4.73 2.3.85.55 1.12 1.32.28.78.1 1.48-.17.7-.67 1.17-.5.48-1.28.53-.77.05-1.67-.55-1.65-1.25-3.65-1.85t-4.2-.6q-3.8 0-6.4 1.57-2.6 1.58-3.95 4.58T426 32.9t1.35 7.32q1.35 3.03 3.95 4.6 2.6 1.58 6.4 1.58 2.2 0 4.22-.63 2.03-.62 3.83-1.87.9-.55 1.63-.5.72.05 1.22.5t.67 1.12q.18.68-.05 1.4-.22.73-.97 1.23-2.05 1.65-4.85 2.5t-5.85.85m20.8-.45q-1.35 0-2.08-.73-.72-.72-.72-2.07V18.1q0-1.35.72-2.08.73-.72 2.08-.72h18.25q1.05 0 1.6.52.55.53.55 1.53 0 1.05-.55 1.6t-1.6.55h-16.05v11.05h14.95q1.1 0 1.63.55.52.55.52 1.55 0 1.05-.52 1.57-.53.53-1.63.53h-14.95v11.6h16.05q1.05 0 1.6.55t.55 1.55q0 1.05-.55 1.57-.55.53-1.6.53zm29.25.35q-1.25 0-1.93-.7-.67-.7-.67-1.95v-30.3q0-1.3.7-1.98.7-.67 1.95-.67h11.95q5.7 0 8.8 2.7t3.1 7.65q0 3.2-1.4 5.5t-4.08 3.5q-2.67 1.2-6.42 1.2l.45-.7h1.3q2 0 3.47 1 1.48 1 2.68 3.2l4.3 8q.5.9.47 1.72-.02.83-.6 1.33-.57.5-1.62.5-1.1 0-1.78-.48-.67-.47-1.22-1.42l-5.25-9.7q-1.05-1.95-2.4-2.63-1.35-.67-3.55-.67h-5.65v12.25q0 1.25-.65 1.95t-1.95.7m2.6-18.8h8.55q3.8 0 5.75-1.6t1.95-4.75q0-3.1-1.95-4.7t-5.75-1.6h-8.55zm31.1 18.8q-1.15 0-1.8-.65t-.65-1.85V17.55q0-1.25.63-1.93.62-.67 1.67-.67.9 0 1.37.32.48.33 1.13 1.18l20.6 27.15H543V17.4q0-1.15.63-1.8.62-.65 1.77-.65 1.2 0 1.8.65t.6 1.8v31.05q0 1.15-.57 1.8-.58.65-1.53.65-.9 0-1.47-.35-.58-.35-1.23-1.2l-20.5-27.1h1.15V48.4q0 1.2-.6 1.85t-1.75.65m37.5-.35q-1.35 0-2.07-.73-.73-.72-.73-2.07V18.1q0-1.35.73-2.08.72-.72 2.07-.72h18.25q1.05 0 1.6.52.55.53.55 1.53 0 1.05-.55 1.6t-1.6.55H561v11.05h14.95q1.1 0 1.62.55.53.55.53 1.55 0 1.05-.53 1.57-.52.53-1.62.53H561v11.6h16.05q1.05 0 1.6.55t.55 1.55q0 1.05-.55 1.57-.55.53-1.6.53zm29.45 0q-1.35 0-2.07-.73-.73-.72-.73-2.07V18.1q0-1.35.73-2.08.72-.72 2.07-.72h9.65q8.7 0 13.43 4.52 4.72 4.53 4.72 13.08 0 4.25-1.2 7.55t-3.52 5.52q-2.33 2.23-5.68 3.41-3.35 1.17-7.75 1.17zm2.4-4.35h6.95q3.3 0 5.73-.82 2.42-.83 4.07-2.48t2.45-4.15.8-5.85q0-6.65-3.27-9.95-3.28-3.3-9.78-3.3h-6.95z"/></svg>
    <svg x="172" y="15.6" width="55.9%" viewBox="0 14.85 525.6 36.15"><path d="M2.75 50.9q-1.3 0-2.03-.7Q0 49.5 0 48.15V18.1q0-1.35.72-2.08.73-.72 2.08-.72h17.8q1.1 0 1.63.52.52.53.52 1.53 0 1.05-.52 1.6-.53.55-1.63.55H5.2v11.25h14.4q1 0 1.58.52.57.53.57 1.53 0 1.05-.57 1.6-.58.55-1.58.55H5.2v13.2q0 2.75-2.45 2.75m39.5.1q-5 0-8.72-2.23-3.73-2.22-5.75-6.3-2.03-4.07-2.03-9.57 0-4.15 1.15-7.48 1.15-3.32 3.3-5.7 2.15-2.37 5.2-3.62t6.85-1.25q5.05 0 8.75 2.2t5.73 6.25q2.02 4.05 2.02 9.55 0 4.15-1.15 7.5t-3.32 5.75q-2.18 2.4-5.23 3.65T42.25 51m0-4.5q3.5 0 5.98-1.6 2.47-1.6 3.8-4.65 1.32-3.05 1.32-7.35 0-6.45-2.9-10t-8.2-3.55q-3.5 0-5.97 1.57-2.48 1.58-3.8 4.63-1.33 3.05-1.33 7.35 0 6.4 2.93 10 2.92 3.6 8.17 3.6m26.05 4.4q-1.25 0-1.92-.7-.68-.7-.68-1.95v-30.3q0-1.3.7-1.98.7-.67 1.95-.67H80.3q5.7 0 8.8 2.7t3.1 7.65q0 3.2-1.4 5.5t-4.08 3.5q-2.67 1.2-6.42 1.2l.45-.7h1.3q2 0 3.48 1 1.47 1 2.67 3.2l4.3 8q.5.9.47 1.72-.02.83-.59 1.33-.58.5-1.63.5-1.1 0-1.78-.48-.67-.47-1.22-1.42l-5.25-9.7q-1.05-1.95-2.4-2.63-1.35-.67-3.55-.67H70.9v12.25q0 1.25-.65 1.95t-1.95.7m2.6-18.8h8.55q3.8 0 5.75-1.6t1.95-4.75q0-3.1-1.95-4.7t-5.75-1.6H70.9zm53.05 18.8q-1.25 0-1.92-.7-.68-.7-.68-1.95v-28.6h-10.6q-1.05 0-1.65-.58-.6-.57-.6-1.62t.6-1.6 1.65-.55h26.35q1.1 0 1.7.55t.6 1.6-.6 1.62q-.6.58-1.7.58h-10.6v28.6q0 1.25-.62 1.95-.63.7-1.93.7m21.95 0q-1.25 0-1.92-.7-.68-.7-.68-1.95V17.6q0-1.3.68-1.98.67-.67 1.92-.67t1.93.67q.67.68.67 1.98v12.9h19.75V17.6q0-1.3.68-1.98.67-.67 1.92-.67t1.9.67q.65.68.65 1.98v30.65q0 1.25-.65 1.95t-1.9.7-1.92-.7q-.68-.7-.68-1.95v-13.4H148.5v13.4q0 1.25-.65 1.95t-1.95.7m38.55-.35q-1.35 0-2.07-.73-.73-.72-.73-2.07V18.1q0-1.35.73-2.08.72-.72 2.07-.72h18.25q1.05 0 1.6.52.55.53.55 1.53 0 1.05-.55 1.6t-1.6.55h-16.05v11.05h14.95q1.1 0 1.63.55.52.55.52 1.55 0 1.05-.52 1.57-.53.53-1.63.53h-14.95v11.6h16.05q1.05 0 1.6.55t.55 1.55q0 1.05-.55 1.57-.55.53-1.6.53zm55.65.45q-5.35 0-9.15-2.2t-5.82-6.28q-2.03-4.07-2.03-9.62 0-4.15 1.15-7.48 1.15-3.32 3.32-5.7 2.18-2.37 5.35-3.62 3.18-1.25 7.18-1.25 2.95 0 5.67.8 2.73.8 4.73 2.3.85.55 1.13 1.32.27.78.09 1.48-.17.7-.67 1.17-.5.48-1.28.53-.77.05-1.67-.55-1.65-1.25-3.65-1.85t-4.2-.6q-3.8 0-6.4 1.57-2.6 1.58-3.95 4.58t-1.35 7.3 1.35 7.32q1.35 3.03 3.95 4.6 2.6 1.58 6.4 1.58 2.2 0 4.22-.63 2.03-.62 3.83-1.87.9-.55 1.62-.5.73.05 1.23.5t.67 1.12q.18.68-.05 1.4-.22.73-.97 1.23-2.05 1.65-4.85 2.5t-5.85.85m32.2 0q-5 0-8.73-2.23-3.72-2.22-5.75-6.3-2.02-4.07-2.02-9.57 0-4.15 1.15-7.48 1.15-3.32 3.3-5.7 2.15-2.37 5.2-3.62t6.85-1.25q5.05 0 8.75 2.2t5.72 6.25q2.03 4.05 2.03 9.55 0 4.15-1.15 7.5t-3.33 5.75q-2.17 2.4-5.22 3.65T272.3 51m0-4.5q3.5 0 5.97-1.6 2.48-1.6 3.8-4.65 1.33-3.05 1.33-7.35 0-6.45-2.9-10t-8.2-3.55q-3.5 0-5.98 1.57-2.47 1.58-3.8 4.63-1.32 3.05-1.32 7.35 0 6.4 2.93 10 2.92 3.6 8.17 3.6m25.95 4.4q-1.15 0-1.78-.65-.62-.65-.62-1.8V17.4q0-1.2.65-1.83.65-.62 1.75-.62 1.05 0 1.63.37.57.38 1.07 1.33l13.1 24.45h-1.55l13.05-24.45q.5-.95 1.05-1.33.55-.37 1.6-.37 1.1 0 1.7.62.6.63.6 1.83v31.05q0 1.15-.58 1.8-.57.65-1.72.65t-1.75-.65-.6-1.8v-25.8h1.1l-11.6 21.45q-.4.75-.85 1.1t-1.25.35-1.3-.38q-.5-.37-.9-1.07l-11.7-21.5h1.2v25.85q0 1.15-.58 1.8-.57.65-1.72.65m43.05 0q-1.15 0-1.78-.65-.62-.65-.62-1.8V17.4q0-1.2.65-1.83.65-.62 1.75-.62 1.05 0 1.63.37.57.38 1.07 1.33l13.1 24.45h-1.55l13.05-24.45q.5-.95 1.05-1.33.55-.37 1.6-.37 1.1 0 1.7.62.6.63.6 1.83v31.05q0 1.15-.58 1.8-.57.65-1.72.65t-1.75-.65-.6-1.8v-25.8h1.1L358.4 44.1q-.4.75-.85 1.1t-1.25.35-1.3-.38q-.5-.37-.9-1.07l-11.7-21.5h1.2v25.85q0 1.15-.58 1.8-.57.65-1.72.65m54.8.1q-3.55 0-6.25-.93-2.7-.92-4.53-2.77-1.82-1.85-2.77-4.6t-.95-6.35v-18.8q0-1.3.67-1.95.68-.65 1.93-.65t1.93.65q.67.65.67 1.95v18.7q0 5.15 2.38 7.7 2.37 2.55 6.92 2.55 4.6 0 6.95-2.55t2.35-7.7v-18.7q0-1.3.67-1.95.68-.65 1.88-.65 1.25 0 1.9.65t.65 1.95v18.8q0 4.8-1.62 8.07-1.63 3.28-4.83 4.93T396.1 51m24.85-.1q-1.15 0-1.8-.65t-.65-1.85V17.55q0-1.25.63-1.93.62-.67 1.67-.67.9 0 1.37.32.48.33 1.13 1.18l20.6 27.15h-1.25V17.4q0-1.15.62-1.8.63-.65 1.78-.65 1.2 0 1.8.65t.6 1.8v31.05q0 1.15-.57 1.8-.58.65-1.53.65-.9 0-1.47-.35-.58-.35-1.23-1.2l-20.5-27.1h1.15V48.4q0 1.2-.6 1.85t-1.75.65m37.3 0q-1.25 0-1.93-.7-.67-.7-.67-1.95V17.6q0-1.3.67-1.98.68-.67 1.93-.67t1.92.67q.68.68.68 1.98v30.65q0 1.25-.65 1.95t-1.95.7m22 0q-1.25 0-1.93-.7-.67-.7-.67-1.95v-28.6h-10.6q-1.05 0-1.65-.58-.6-.57-.6-1.62t.6-1.6 1.65-.55h26.35q1.1 0 1.7.55t.6 1.6-.6 1.62q-.6.58-1.7.58h-10.6v28.6q0 1.25-.63 1.95-.62.7-1.92.7m30.95 0q-1.25 0-1.93-.7-.67-.7-.67-2V32.35l1.15 3.3L497.4 18.5q-.55-.75-.5-1.58.05-.82.67-1.4.63-.57 1.68-.57.8 0 1.47.4.68.4 1.28 1.25l9.9 13.75h-1.2l9.9-13.75q.65-.9 1.25-1.28.6-.37 1.5-.37 1.05 0 1.62.52.58.53.6 1.35.03.83-.62 1.73l-12.25 17.1 1.05-3.3V48.2q0 2.7-2.55 2.7"/></svg>
  </g>
</svg>