<svg xmlns="http://www.w3.org/2000/svg" viewBox="0 0 200 200"><g clip-path="circle() view-box"><rect width="100%" height="100%" fill="#d4af36"/><g fill="#fff"><path d="M0 59.7v14h200v-14"/><path d="M93 0h14v200H93"/><g stroke="#fff" stroke-width="3"><path d="m279.8 154.4-14 24.1L-65.8-45.1l-14 24.1z"/><path d="m211.8 232.5-24.1 14L12.3-113.1l-24.1 14z"/><path d="m-79.8 154.4 14 24.1L265.8-45.1l14 24.1z"/><path d="m-11.8 232.5 24.1 14 175.4-359.6 24.1 14z"/></g></g><circle cx="100" cy="66.7" r="62.95" fill="none" stroke="#fff" stroke-width="7.5"/><g fill="#0d0d0e" stroke="#272728"><path d="m96.5 1 6.5 6.5v194h-6.5z"/><path d="m38.3 63.2-4.5 6.5h128.3l4.5-6.5z"/></g></g></svg>