<svg xmlns="http://www.w3.org/2000/svg" viewBox="0 0 105.833 34.396"><g transform="translate(-2.832 -2.88)"><rect width="92.169" height="25.713" x="16.265" y="7.215" fill="#49aebd" stroke="#49aebd" stroke-width=".287" rx="13.849" ry="12.857"/><circle cx="19.69" cy="19.844" r="16.684" fill="#49aebd" stroke="#49aebd" stroke-width=".294"/><circle cx="19.69" cy="19.844" r="13.215" fill="#fff" stroke="#fff" stroke-width=".233"/><path fill="#49aebd" d="M16.86 22.85v5.619h5.215V17.245c-2.881 0-5.215 2.51-5.215 5.605m6.83-6.027v11.645a5.215 5.215 0 0 0 5.215-5.214V11.219c-2.881 0-5.215 2.509-5.215 5.604m-10.672 6.56a2.543 2.543 0 0 1 2.543 2.543v2.543h-2.543a2.543 2.543 0 0 1 0-5.086"/></g><g transform="translate(-2.832 -2.88)"><rect width="39.342" height="9.328" x="61.877" y="27.521" fill="#fff" stroke="#4697a7" stroke-width=".648" rx="5"/><path d="M84.437 29.836c.389 0 .705.315.705.704v.352h-6.339v-.352c0-.389.315-.704.704-.704zm.705 4.226a.705.705 0 0 1-.705.704h-4.93a.705.705 0 0 1-.704-.704v-2.113h6.339zm-5.106-.705a.177.177 0 0 0-.176.176c0 .097.079.177.176.177h.704a.177.177 0 0 0 0-.352zm1.408.353h1.409a.177.177 0 0 0 0-.352h-1.409a.177.177 0 0 0-.176.175c0 .097.08.177.176.177M71.58 28.968a.4.4 0 0 1 .32 0l2.843 1.219a.405.405 0 0 1 .238.454c-.039.19-.205.314-.41.325v.102a.297.297 0 0 1-.304.304h-5.078a.31.31 0 0 1-.305-.304v-.102a.416.416 0 0 1-.386-.325.41.41 0 0 1 .238-.454zm.16 1.592a.406.406 0 1 0 0-.812.406.406 0 0 0 0 .812m-1.637 3.656h.508v-2.437h.812v2.437h.621v-2.437h.813v2.437h.507v-2.437h.813v2.492c.008.004.015-.003.023.014l.61.406a.406.406 0 0 1-.227.744h-5.699a.406.406 0 0 1-.214-.744l.61-.406c.007-.017.014-.01.01-.014v-2.492h.813z"/><path fill="#0079c1" d="M93.168 31.908c-.104.681-.624.681-1.127.681h-.286l.2-1.271a.16.16 0 0 1 .157-.134h.131c.343 0 .666 0 .833.195.1.117.13.29.092.53m-.219-1.778h-1.897c-.13 0-.24.095-.26.223l-.768 4.865a.158.158 0 0 0 .156.183h.974c.09 0 .168-.066.182-.156l.218-1.38a.26.26 0 0 1 .26-.222h.6c1.25 0 1.971-.605 2.16-1.804.085-.524.003-.936-.242-1.224-.27-.317-.748-.485-1.383-.485"/><path fill="#00457c" d="M92.103 30.892c-.104.681-.624.681-1.127.681h-.286l.2-1.271a.16.16 0 0 1 .157-.134h.13c.343 0 .667 0 .834.195.1.117.13.29.092.53m-.22-1.778h-1.896c-.13 0-.24.095-.261.223l-.767 4.865a.158.158 0 0 0 .156.183h.906c.13 0 .24-.095.26-.223l.208-1.312a.26.26 0 0 1 .26-.223h.6c1.25 0 1.971-.605 2.16-1.803.085-.524.003-.936-.242-1.225-.27-.317-.748-.485-1.383-.485"/></g><path fill="#fff" stroke="#4697a7" stroke-width=".648" d="M38.983 22.13V11.797H41.9q1.348 0 2.384.597 1.036.596 1.597 1.696.568 1.1.575 2.526v.66q0 1.462-.568 2.562-.56 1.1-1.61 1.689-1.044.589-2.435.603zm1.363-9.211v8.097h1.433q1.576 0 2.449-.98.88-.979.88-2.788v-.604q0-1.76-.83-2.732-.824-.98-2.343-.993zm16.116 4.378q0 1.519-.51 2.654-.512 1.129-1.449 1.725-.936.596-2.185.596-1.221 0-2.165-.596-.944-.603-1.469-1.71-.518-1.115-.532-2.576v-.746q0-1.49.518-2.632t1.462-1.746q.95-.61 2.171-.61 1.242 0 2.186.603.951.596 1.462 1.738.511 1.136.511 2.647zm-1.355-.667q0-1.838-.738-2.817-.739-.987-2.066-.987-1.291 0-2.036.987-.738.98-.76 2.725v.76q0 1.78.746 2.802.752 1.015 2.065 1.015 1.32 0 2.043-.958.724-.965.746-2.76zm11.34 5.5h-1.37l-5.202-7.962v7.962h-1.37V11.797h1.37l5.216 7.998v-7.998h1.356zm8.253-2.697h-4.329L69.4 22.13h-1.405l3.946-10.333h1.192l3.953 10.333h-1.398zm-3.917-1.12h3.513l-1.76-4.834zm13.916-5.394h-3.32v9.211h-1.356v-9.21h-3.314v-1.122h7.99zm7.374 4.435h-4.478v3.662h5.202v1.114h-6.565V11.797h6.494v1.122h-5.131v3.32h4.478z"/></svg>