<svg xmlns="http://www.w3.org/2000/svg" clip-path="circle()" viewBox="0 0 200 200"><rect width="100%" height="100%" fill="#d4af36"/><g fill="#fff"><path d="M0 60.7v12h200v-12"/><path d="M94 0h12v200H94"/><g stroke="#fff" stroke-width="3"><path d="m279.8 154.4-14 24.1L-65.8-45.1l-14 24.1z"/><path d="m211.8 232.5-24.1 14L12.3-113.1l-24.1 14z"/><path d="m-79.8 154.4 14 24.1L265.8-45.1l14 24.1z"/><path d="m-11.8 232.5 24.1 14 175.4-359.6 24.1 14z"/></g></g><circle cx="100" cy="66.7" r="63.7" fill="none" stroke="#fff" stroke-width="6"/><g fill="#0d0d0e" stroke="#272728"><path d="m97 1 6 6v194h-6z"/><path d="m38.3 63.7-4 6h128.3l4-6z"/></g></svg>