<svg xmlns="http://www.w3.org/2000/svg" xml:space="preserve" id="svg1342" width="487.62" height="120" viewBox="0 0 129.016 31.75"><defs id="defs1339"><style id="style479" type="text/css">.fil0{fill:#d4af36}</style></defs><g id="layer1"><g id="text3714" aria-label="CHRISTIANS CONCERNED FOR THE COMMUNITY" style="font-weight:500;font-size:7.34605px;line-height:1;font-family:Nunito;-inkscape-font-specification:&quot;Nunito Medium&quot;;text-align:center;text-anchor:middle;fill:#fff;stroke:#fff;stroke-width:.0470236"><path id="path1" d="M38.24 14.86q-.786 0-1.344-.324-.559-.323-.86-.918-.294-.602-.294-1.418 0-.61.17-1.094.168-.492.484-.838.323-.352.786-.536.47-.183 1.058-.183.433 0 .83.117.404.118.698.338.125.08.162.198.044.11.014.213-.022.103-.095.177-.074.066-.191.073-.11.007-.243-.08-.242-.184-.536-.273-.294-.088-.617-.088-.558 0-.94.235-.382.228-.58.669-.199.44-.199 1.072t.198 1.08q.199.441.58.676.383.228.941.228.323 0 .617-.088.301-.096.566-.28.132-.08.235-.073.11.007.183.074.074.066.096.169.03.095-.007.205-.03.103-.14.177-.301.242-.713.367-.41.125-.859.125zm3.026-.015q-.183 0-.286-.103-.096-.103-.096-.286V9.953q0-.191.096-.287.103-.103.286-.103.184 0 .28.103.102.096.102.287v1.895h2.902V9.953q0-.191.096-.287.103-.103.286-.103.184 0 .28.103.095.096.095.287v4.503q0 .183-.096.286-.095.103-.279.103-.183 0-.286-.103-.096-.103-.096-.286v-1.97h-2.902v1.97q0 .183-.095.286-.096.103-.287.103zm5.635 0q-.184 0-.287-.103-.095-.103-.095-.286v-4.452q0-.191.103-.287.103-.102.286-.102h1.756q.837 0 1.293.396.455.397.455 1.124 0 .47-.205.808-.206.338-.603.515-.39.176-.94.176l.066-.103h.191q.294 0 .507.147.22.147.397.47l.631 1.175q.074.133.067.258 0 .117-.089.19-.08.074-.235.074-.161 0-.264-.066-.096-.074-.176-.213l-.772-1.425q-.154-.287-.352-.382-.199-.103-.522-.103h-.83v1.8q0 .183-.096.286-.095.103-.286.103zm.382-2.762h1.256q.558 0 .845-.235t.286-.698q0-.456-.286-.69-.287-.236-.845-.236h-1.256Zm4.591 2.762q-.183 0-.286-.103-.096-.103-.096-.286V9.953q0-.191.096-.287.103-.103.286-.103.184 0 .28.103.102.096.102.287v4.503q0 .183-.095.286-.096.103-.287.103zm3.313.015q-.338 0-.66-.052-.324-.051-.61-.154-.287-.11-.515-.264-.11-.081-.154-.184-.037-.103-.022-.198.022-.103.088-.177.066-.073.162-.088.095-.022.213.059.33.213.698.316.367.095.8.095.625 0 .919-.22.3-.228.3-.588 0-.294-.212-.463-.213-.176-.713-.279l-.786-.161q-.698-.147-1.043-.485-.338-.338-.338-.911 0-.345.14-.632.147-.286.404-.492.257-.213.617-.323t.786-.11q.455 0 .852.117.404.118.72.36.095.066.125.169.036.095.014.191-.014.095-.08.162-.067.066-.17.08-.102.008-.227-.073-.287-.191-.588-.272-.294-.088-.654-.088t-.631.11q-.265.11-.412.309-.14.198-.14.47 0 .308.199.492.198.184.661.28l.779.16q.734.155 1.094.478.36.324.36.86 0 .345-.14.624-.139.272-.396.47-.257.199-.624.309-.36.103-.816.103zm4.379-.015q-.184 0-.287-.103-.095-.103-.095-.286v-4.202h-1.558q-.154 0-.242-.081-.088-.088-.088-.242 0-.155.088-.236t.242-.08h3.872q.161 0 .25.08.087.081.087.236t-.088.242q-.088.08-.25.08H59.94v4.203q0 .183-.095.286-.088.103-.28.103zm3.224 0q-.183 0-.286-.103-.096-.103-.096-.286V9.953q0-.191.096-.287.103-.103.286-.103.184 0 .28.103.102.096.102.287v4.503q0 .183-.095.286-.096.103-.287.103zm1.558 0q-.147 0-.235-.066t-.103-.176.044-.25l1.99-4.467q.074-.176.184-.25.118-.073.257-.073.133 0 .243.074.117.073.19.25l1.992 4.466q.066.14.051.257-.015.11-.095.176-.081.059-.228.059-.162 0-.257-.08-.096-.082-.17-.25l-.513-1.19.345.205h-3.13l.338-.206-.507 1.19q-.073.177-.161.258-.088.073-.235.073zm2.123-4.386-1.11 2.63-.183-.176h2.593l-.169.176-1.117-2.63zm3.673 4.386q-.17 0-.265-.095-.095-.096-.095-.272V9.945q0-.183.088-.279.096-.103.25-.103.132 0 .198.052.074.044.17.169l3.026 3.988h-.184V9.923q0-.169.088-.264.096-.096.265-.096.176 0 .264.096.088.095.088.264v4.562q0 .169-.088.265-.08.095-.22.095-.133 0-.22-.051-.082-.052-.177-.177l-3.012-3.981h.17v3.842q0 .176-.09.272-.087.095-.256.095zm6.824.015q-.338 0-.66-.052-.324-.051-.61-.154-.287-.11-.515-.264-.11-.081-.154-.184-.037-.103-.022-.198.022-.103.088-.177.066-.073.162-.088.095-.022.213.059.33.213.698.316.367.095.8.095.625 0 .919-.22.3-.228.3-.588 0-.294-.212-.463-.213-.176-.713-.279l-.786-.161q-.698-.147-1.043-.485-.338-.338-.338-.911 0-.345.14-.632.147-.286.404-.492.257-.213.617-.323t.786-.11q.455 0 .852.117.404.118.72.36.095.066.125.169.036.095.014.191-.014.095-.08.162-.067.066-.17.08-.102.008-.227-.073-.287-.191-.588-.272-.294-.088-.654-.088t-.631.11q-.265.11-.412.309-.14.198-.14.47 0 .308.199.492.198.184.661.28l.779.16q.734.155 1.094.478.36.324.36.86 0 .345-.14.624-.139.272-.396.47-.257.199-.624.309-.36.103-.816.103zm7.104 0q-.786 0-1.344-.324-.559-.323-.86-.918-.294-.602-.294-1.418 0-.61.17-1.094.168-.492.484-.838.323-.352.786-.536.47-.183 1.058-.183.433 0 .83.117.404.118.698.338.125.08.162.198.044.11.014.213-.022.103-.095.177-.074.066-.191.073-.11.007-.243-.08-.242-.184-.536-.273-.294-.088-.617-.088-.558 0-.94.235-.382.228-.58.669-.199.44-.199 1.072t.198 1.08q.199.441.58.676.383.228.941.228.323 0 .617-.088.301-.096.566-.28.132-.08.235-.073.11.007.183.074.074.066.096.169.03.095-.007.205-.03.103-.14.177-.301.242-.713.367-.41.125-.859.125zm4.73 0q-.735 0-1.286-.324-.543-.33-.845-.925-.293-.603-.293-1.41 0-.61.169-1.095.169-.492.484-.838.316-.352.764-.536.449-.183 1.007-.183.742 0 1.285.323.544.323.838.918.301.595.301 1.403 0 .61-.169 1.102t-.492.845q-.316.352-.764.536t-1 .184zm0-.661q.514 0 .874-.236.367-.235.558-.683.199-.448.199-1.08 0-.947-.426-1.469-.427-.521-1.205-.521-.514 0-.882.235-.36.227-.558.676-.191.448-.191 1.08 0 .94.426 1.469.433.529 1.205.529zm3.805.646q-.169 0-.264-.095-.096-.096-.096-.272V9.945q0-.183.088-.279.096-.103.25-.103.132 0 .198.052.074.044.17.169l3.026 3.988h-.184V9.923q0-.169.088-.264.096-.096.265-.096.176 0 .264.096.088.095.088.264v4.562q0 .169-.088.265-.08.095-.22.095-.132 0-.22-.051-.081-.052-.177-.177l-3.012-3.981h.17v3.842q0 .176-.089.272-.088.095-.257.095zm7.42.015q-.786 0-1.345-.324-.558-.323-.86-.918-.293-.602-.293-1.418 0-.61.169-1.094.169-.492.485-.838.323-.352.786-.536.47-.183 1.058-.183.433 0 .83.117.404.118.698.338.124.08.161.198.044.11.015.213-.022.103-.096.177-.073.066-.19.073-.11.007-.243-.08-.242-.184-.536-.273-.294-.088-.617-.088-.559 0-.94.235-.383.228-.581.669-.198.44-.198 1.072t.198 1.08q.198.441.58.676.382.228.94.228.324 0 .618-.088.3-.096.565-.28.133-.08.235-.073.11.007.184.074t.096.169q.029.095-.007.205-.03.103-.14.177-.301.242-.713.367-.411.125-.86.125zm3.056-.066q-.199 0-.309-.103-.103-.11-.103-.309v-4.356q0-.198.103-.301.11-.11.309-.11h2.68q.155 0 .236.08.08.074.08.22 0 .155-.08.236t-.235.08h-2.358v1.624h2.196q.162 0 .235.081.081.08.081.228 0 .154-.08.235-.074.073-.236.073h-2.196v1.705h2.358q.154 0 .235.08.08.081.08.228 0 .154-.08.235-.08.074-.235.074zm4.297.051q-.184 0-.287-.103-.095-.103-.095-.286v-4.452q0-.191.103-.287.103-.102.286-.102h1.756q.837 0 1.293.396.455.397.455 1.124 0 .47-.205.808-.206.338-.603.515-.389.176-.94.176l.066-.103h.191q.294 0 .507.147.22.147.397.47l.631 1.175q.074.133.067.258 0 .117-.089.19-.08.074-.235.074-.161 0-.264-.066-.096-.074-.176-.213l-.772-1.425q-.154-.287-.352-.382-.199-.103-.522-.103h-.83v1.8q0 .183-.096.286-.095.103-.286.103zm.382-2.762h1.256q.558 0 .845-.235t.286-.698q0-.456-.286-.69-.287-.236-.845-.236h-1.256zm4.57 2.762q-.17 0-.265-.095-.096-.096-.096-.272V9.945q0-.183.088-.279.096-.103.25-.103.132 0 .199.052.073.044.169.169l3.026 3.988h-.184V9.923q0-.169.088-.264.096-.096.265-.096.176 0 .264.096.089.095.089.264v4.562q0 .169-.089.265-.08.095-.22.095-.132 0-.22-.051-.081-.052-.177-.177l-3.012-3.981h.17v3.842q0 .176-.089.272-.088.095-.257.095zm5.509-.051q-.199 0-.309-.103-.103-.11-.103-.309v-4.356q0-.198.103-.301.11-.11.309-.11h2.681q.154 0 .235.08.08.074.08.22 0 .155-.08.236t-.235.08h-2.358v1.624h2.196q.162 0 .236.081.08.08.08.228 0 .154-.08.235-.074.073-.236.073h-2.196v1.705h2.358q.154 0 .235.08.08.081.08.228 0 .154-.08.235-.08.074-.235.074zm4.327 0q-.199 0-.309-.103-.103-.11-.103-.309v-4.356q0-.198.103-.301.11-.11.309-.11h1.417q1.279 0 1.97.668.697.661.697 1.917 0 .625-.176 1.11-.177.485-.522.815-.338.323-.83.5-.492.169-1.139.169zm.352-.64h1.021q.485 0 .838-.117.36-.125.602-.367.243-.243.36-.61.118-.367.118-.86 0-.977-.485-1.461-.478-.485-1.433-.485h-1.02z" style="font-weight:600;-inkscape-font-specification:&quot;Nunito Semi-Bold&quot;"/><path id="path2" d="M45.483 22.188q-.178 0-.282-.096-.096-.097-.096-.282v-4.13q0-.186.096-.282.104-.103.29-.103h2.446q.15 0 .22.075.075.07.075.207 0 .144-.076.22-.068.075-.22.075H45.82v1.546h1.98q.137 0 .212.076.083.069.083.206 0 .144-.083.22-.075.076-.213.076H45.82v1.814q0 .378-.337.378zm5.43.013q-.688 0-1.204-.302-.508-.31-.79-.866-.275-.563-.275-1.32 0-.57.158-1.023.158-.46.454-.784.295-.33.715-.501.419-.172.941-.172.694 0 1.203.302.508.303.783.86.282.556.282 1.312 0 .57-.158 1.03t-.46.791q-.296.33-.715.502-.42.171-.935.171zm0-.618q.48 0 .817-.22.343-.22.522-.639.186-.42.186-1.01 0-.887-.399-1.375-.398-.488-1.127-.488-.481 0-.825.22-.336.213-.522.633-.179.419-.179 1.01 0 .88.399 1.374.405.495 1.127.495zm3.58.605q-.172 0-.269-.096-.089-.097-.089-.268v-4.165q0-.179.096-.268.097-.096.268-.096h1.643q.783 0 1.21.37.425.372.425 1.052 0 .44-.192.756-.193.316-.564.481-.364.165-.88.165l.063-.096h.178q.275 0 .474.137.207.138.372.44l.59 1.1q.07.124.062.24 0 .11-.082.179-.076.069-.22.069-.151 0-.247-.062-.09-.069-.165-.2l-.722-1.333q-.144-.268-.33-.357-.185-.096-.488-.096h-.776v1.684q0 .171-.09.268-.089.096-.268.096zm.357-2.584h1.175q.522 0 .79-.22t.268-.653q0-.426-.268-.646t-.79-.22H54.85zm7.291 2.584q-.172 0-.268-.096-.09-.097-.09-.268v-3.931h-1.456q-.144 0-.227-.076-.082-.082-.082-.227 0-.144.082-.22.083-.075.227-.075h3.622q.15 0 .233.075.083.076.083.22t-.083.227q-.082.076-.233.076h-1.457v3.93q0 .172-.09.269-.082.096-.26.096zm3.017 0q-.172 0-.268-.096-.09-.097-.09-.268V17.61q0-.179.09-.268.096-.096.268-.096t.261.096q.096.09.096.268v1.773h2.715V17.61q0-.179.09-.268.095-.096.267-.096t.261.096q.09.09.09.268v4.213q0 .171-.09.268-.089.096-.26.096-.173 0-.269-.096-.09-.097-.09-.268v-1.842h-2.714v1.842q0 .171-.089.268-.09.096-.268.096zm5.298-.048q-.185 0-.288-.097-.096-.103-.096-.288V17.68q0-.186.096-.282.103-.103.288-.103h2.509q.144 0 .22.075.075.07.075.207 0 .144-.075.22-.076.075-.22.075h-2.206v1.519h2.055q.15 0 .22.075.075.076.075.213 0 .145-.075.22-.07.069-.22.069h-2.055v1.594h2.206q.144 0 .22.076.075.076.075.213 0 .144-.075.22-.076.069-.22.069zm7.65.061q-.736 0-1.258-.302-.523-.302-.804-.859-.275-.563-.275-1.326 0-.57.158-1.024.158-.46.453-.784.303-.33.736-.501.44-.172.99-.172.405 0 .776.11.378.11.653.316.116.076.15.186.042.103.014.199-.02.096-.089.165-.069.062-.179.069-.103.006-.226-.076-.227-.172-.502-.254t-.577-.083q-.523 0-.88.22-.357.213-.543.625-.185.413-.185 1.004 0 .59.185 1.01.186.412.543.632.357.213.88.213.302 0 .577-.082.282-.09.53-.261.123-.076.22-.07.102.008.17.07.07.061.09.158.028.089-.007.192-.027.096-.13.165-.282.227-.667.344t-.804.116zm4.424 0q-.687 0-1.203-.302-.508-.31-.79-.866-.275-.563-.275-1.32 0-.57.158-1.023.158-.46.454-.784.295-.33.714-.501.42-.172.942-.172.694 0 1.203.302.508.303.783.86.282.556.282 1.312 0 .57-.158 1.03t-.46.791q-.296.33-.715.502-.42.171-.935.171zm0-.618q.481 0 .818-.22.343-.22.522-.639.186-.42.186-1.01 0-.887-.399-1.375t-1.127-.488q-.481 0-.825.22-.336.213-.522.633-.179.419-.179 1.01 0 .88.399 1.374.405.495 1.127.495zm3.567.605q-.158 0-.248-.09-.082-.089-.082-.247v-4.268q0-.165.089-.247.09-.09.24-.09.145 0 .22.056.083.048.152.178l1.8 3.36h-.213l1.794-3.36q.068-.13.144-.178.076-.055.22-.055.151 0 .234.089.082.082.082.247v4.268q0 .158-.082.247-.076.09-.234.09t-.24-.09-.083-.247v-3.546h.151l-1.594 2.948q-.055.103-.117.151t-.172.048-.178-.048q-.07-.055-.124-.15l-1.608-2.956h.165v3.553q0 .158-.083.247-.075.09-.233.09zm5.916 0q-.158 0-.247-.09-.082-.089-.082-.247v-4.268q0-.165.089-.247.09-.09.24-.09.145 0 .22.056.083.048.152.178l1.8 3.36h-.213l1.794-3.36q.068-.13.144-.178.076-.055.22-.055.151 0 .234.089.082.082.082.247v4.268q0 .158-.082.247-.076.09-.234.09t-.24-.09-.083-.247v-3.546h.151l-1.594 2.948q-.055.103-.117.151t-.172.048-.179-.048q-.068-.055-.123-.15l-1.608-2.956h.165v3.553q0 .158-.083.247-.075.09-.234.09zm7.532.014q-.488 0-.859-.124-.37-.13-.625-.385-.247-.254-.378-.632-.13-.378-.13-.873v-2.584q0-.179.089-.268.096-.09.268-.09t.26.09q.097.09.097.268v2.57q0 .708.323 1.059.33.35.955.35.633 0 .956-.35t.323-1.059v-2.57q0-.179.089-.268.096-.09.261-.09.172 0 .261.09t.09.268v2.584q0 .66-.227 1.113-.22.447-.66.674t-1.093.227zm3.416-.014q-.158 0-.248-.09-.089-.089-.089-.254v-4.24q0-.172.083-.261.089-.096.233-.096.124 0 .186.048.069.041.158.158l2.831 3.731h-.172v-3.6q0-.159.083-.248.09-.09.247-.09.165 0 .248.09t.082.247v4.268q0 .158-.082.247-.076.09-.206.09-.124 0-.207-.048-.075-.048-.165-.165l-2.817-3.725h.158v3.594q0 .165-.083.254-.082.09-.24.09zm5.126 0q-.171 0-.268-.096-.089-.097-.089-.268V17.61q0-.179.09-.268.096-.096.267-.096t.262.096q.096.09.096.268v4.213q0 .171-.09.268-.089.096-.268.096zm3.024 0q-.172 0-.268-.096-.09-.097-.09-.268v-3.931h-1.456q-.144 0-.227-.076-.082-.082-.082-.227 0-.144.082-.22.083-.075.227-.075h3.622q.15 0 .233.075.083.076.083.22t-.083.227q-.082.076-.233.076h-1.457v3.93q0 .172-.09.269-.082.096-.26.096zm4.252 0q-.172 0-.268-.096-.09-.097-.09-.275v-2.179l.159.454-1.698-2.357q-.075-.103-.068-.213.007-.117.089-.193.09-.082.233-.082.11 0 .2.055.096.055.178.171l1.361 1.89h-.165l1.36-1.89q.09-.123.173-.171.082-.055.206-.055.144 0 .22.075.082.069.082.186.007.11-.082.233l-1.684 2.35.144-.453v2.179q0 .37-.35.37z" style="font-weight:600;font-size:6.87215px;-inkscape-font-specification:&quot;Nunito Semi-Bold&quot;"/></g><g id="g311" style="clip-rule:evenodd;fill-rule:evenodd;image-rendering:optimizeQuality;shape-rendering:geometricPrecision;text-rendering:geometricPrecision" transform="scale(.07957)"><g id="Layer_x0020_1" transform="translate(-11.846 -10.656)"><ellipse id="path190" cx="211.508" cy="210.157" rx="199.6" ry="199.5" style="clip-rule:evenodd;display:inline;fill:#fff;fill-rule:evenodd;stroke-width:1.45515;image-rendering:optimizeQuality;shape-rendering:geometricPrecision;text-rendering:geometricPrecision"/></g><g id="layer1-3" transform="translate(-5.891 -4.869)"><g id="_2486941494336" style="clip-rule:evenodd;fill-rule:evenodd;image-rendering:optimizeQuality;shape-rendering:geometricPrecision;text-rendering:geometricPrecision" transform="translate(-.178 -.172)scale(1.0298)"><path id="path484" d="M184.326 388.144c.07-39.048.166-93.576.256-132.622.146-3.61-4.095-3.668-6.661-4.239-4.66-1.045-9.365-1.862-13.902-3.379-5.956-1.726-11.594-4.476-17.412-6.497-1.749-.661-4.258 4.515-5.194 6.44-8.005 15.153-15.929 30.353-23.976 45.472-10.351 19.694-20.774 39.365-31.144 59.043-1.982 4.084 3.381 5.461 5.921 7.428 16.018 10.751 33.124 18.787 51.588 24.365 6.61 2.408 18.623 4.734 31.793 7.081 5.484.027 8.106 1.205 8.73-3.092" class="fil0"/><path id="path486" d="M250.219 242.665c-5.535 2.123-10.983 4.518-16.77 5.904-5.968 1.887-12.204 2.778-18.299 3.995-2.087.4-1.637 6.582-1.592 9.46.02 42.487-.04 84.976.03 127.463-.036 2.409 3.721 2.115 5.928 1.882 12.937-1.326 24.795-3.86 36.475-7.351 19.149-5.861 37.034-14.392 53.708-25.761 3.563-2.699.908-6.158-.358-9.08-12.89-24.413-25.761-48.894-38.66-73.32-5.647-10.668-11.15-21.438-17.036-31.968-.763-1.169-2.036-1.7-3.426-1.224" class="fil0"/><path id="path488" d="M298.527 204.858c-2.683 2.622-4.748 5.444-7.3 8-6.723 7.274-14.296 13.766-22.487 19.4-3.076 1.712-.774 5.05.798 6.936 21.86 31.337 43.78 62.64 65.648 93.981 1.742 2.336 5.397-1.12 9.355-5.58 13.673-15.32 25.332-32.396 33.508-51.262 2.18-5.209 4.148-10.669 5.584-16.117-.875-3.107-3.151-4.011-6.703-6.272-24.97-16.128-49.893-32.301-74.849-48.435-1.066-.639-2.48-1.388-3.554-.651" class="fil0"/><path id="path490" d="M130.497 234.55c1.065-1.5-1.453-3.617-3.127-4.925a130.5 130.5 0 0 1-24.334-23.272c-1.763-2.111-4.183-.77-6.053.492-21.4 13.894-42.655 28.086-63.978 42.087-5.176 3.5-10.452 6.842-15.598 10.389-1.877 1.247.733 6.64 1.602 9.321 5.891 14.79 12.74 28.186 21.886 41.01 5.398 7.75 11.786 15.528 17.605 22.023 2.323 2.344 3.468-.12 5.62-2.63a75573 75573 0 0 0 64.281-91.427c.712-1.007 1.462-1.976 2.096-3.068" class="fil0"/><path id="path492" d="M312.753 137.83a6.65 6.65 0 0 0 2.625-.521c.575-.247 1.041-.77 1.48-1.191.626-.599 1.093-1.257 1.661-1.872l.927-1.172c.854-1.155.499-.274 1.232-1.917l.206-.372c.142-.345-.083-.699-.13-1.141l-.93-.116c-.425-.087-.24-.09-.515-.154-.699-.163-91.416-.038-106.515-.033-1.38 0-3.025.192-4.317-.171-.067-.019-.163-.035-.236-.051-.134-.027-.263-.051-.471-.102-.65-.16-1.054-.492-1.518-.964a3.5 3.5 0 0 1-.559-.684c-.409-.64-.253-.722-.482-1.403-.154-.455.056.325-.17-.254-.122-.648.018-90.23-.004-98.813l-.014-2.578c-.22-.053.228.002-.053.017-.029.002-.017.024-.122-.017-.023-1.897-1.856-3.294-3.022-4.596l-.18-.201-.048-.047c-.853-.861-2.074-2.288-2.941-3.072l-.051-.045-3.032-2.984c-.226-.225-.338-.283-.565-.485-.353-.315-.095-.201-.613-.341-.861-.234-1.253-.557-1.754.306-.484.836-.271 2.209-.271 3.159l-.003 104.255c-.002.923.161 3.526-.093 4.3l-.097.469c-.23 2.331-.331 1.882-1.07 2.855-.296.39-.448.482-.922.7a10 10 0 0 0-.513.252l-1.893.489c-32.906.074-65.812.004-98.718.002-.827 0-1.758-.106-2.573.01-.51.073-.312.139-.771.179-.716.062-.514.218-1.086.534l-.063.033c-.529.284-.927.494-1.319.881-.18.178-.289.304-.474.481l-.401.363c-.014.015-.031.038-.044.053l-.122.164-.043.052-2.154 2.523-.044.051-.041.054-.248.421c-.197.296-.288.234-.422.53-.104.227-.122.523-.122.834l.078.397c.16.392.275.473.684.653l.128.063c.02.009.043.022.064.031 1.045.447 7.108.089 8.593.177l98.621.102c.458.001 1.965.183 2.473.401l.342.229c.152.119.011.026.163.123.513.328 1.507.299 1.77 1.464.086.381.192.573.261.894.043.198-.106.792.046.91.464.133-.383.17.094-.057.158-.076-.163-.161.085-.032.223.115.075.94.044 1.173-.106.787-.034 1.642-.036 2.447v243.453c0 1.122-.159 2.314.968 2.977l.595.359c.231.064 4.712.084 5.606.102l2.239.007c.762.001 1.712-.095 2.193-.731.169-.224.249-.31.369-.584.344-.782.172-2.791.172-3.85l-.002-230.468c0-1.724-.112-12.51.008-13.932.039-.467.176-1.252.19-1.713.304-.02.327.019.533-.108.013-.499.076-.579.12-.955.576-.401-.101.095.453-.215-.151-.553-.376-.241.754-1.157.398-.322 1.787-.71 2.328-.731.209-.008.562-.095.572-.095l8.211-.004c30.677.101 61.357-.002 92.034.005z" style="fill:#0d0d0e"/><path id="path494" d="M16.398 145.197c-3.464-.092-4.23 4.03-6.142 12.865-1.538 6.194-2.4 13.179-3.233 19.868a185.8 185.8 0 0 0 .118 41.962c.558 5.709 7.244 1.898 10.671.36 23.334-11.13 46.796-21.994 70.038-33.314 2.718-1.157-.537-6.38-3.715-14.256-3.19-8.133-5.104-16.702-6.528-25.3-.561-2.82-9.139-2.122-14.942-2.143-15.45-.085-30.823-.116-46.267-.042" class="fil0"/><path id="path496" d="M393.118 212.768c.555-7.984.79-15.78.247-23.825-.781-14.742-3.158-29.272-6.773-42.237-1.34-1.763-7.3-1.556-11.182-1.544-16.997.043-34.012-.176-50.998.179-2.162.167-4.403 7.502-5.842 12.986a1310 1310 0 0 0-7.368 25.172c.055 3.937 5.688 5.753 10.029 7.684 22.583 10.624 45.156 21.272 67.755 31.863 3.88 1.913 3.87-6.512 4.132-10.278" class="fil0"/><path id="path498" d="M58.063 67.76c-2.129.202-3.938 3.123-7.306 6.929-8.236 10.04-15.558 20.651-21.722 32.094-1.998 3.766-4.28 7.535-5.587 11.608-.387 3.311 4.188 2.322 6.23 2.53l44.199.013c3.184-.198 3.322-3.76 3.612-6.172.332-4.533 1.16-8.997 2.37-13.377 1.27-6.547 3.955-12.71 6.027-19.017.95-2.714-3.102-3.967-6.428-5.565-6.089-2.894-12.232-5.818-18.35-8.701-.889-.315-2.104-.48-3.045-.342" class="fil0"/><path id="path500" d="m312.753 137.83-2.865.005c-30.677-.007-61.357.096-92.034-.005l-8.211.004c-.01 0-.363.087-.572.095-.541.021-1.93.409-2.328.731-1.13.916-.905.604-.754 1.157-.554.31.123-.186-.453.215-.044.376-.107.456-.12.955-.206.127-.229.088-.533.108-.014.461-.151 1.246-.19 1.713-.12 1.422-.008 12.208-.008 13.932l.002 230.469c0 1.058.172 3.067-.172 3.849-.12.275-.2.36-.369.584-.481.636-1.41.71-2.193.731l-2.239-.007c-.896 0-4.967.04-5.722-.2l-.595-.359c-.983-.67-.852-1.805-.852-2.879V145.475c.002-.805-.07-1.66.036-2.447.031-.233.179-1.058-.044-1.173-.248-.129.073-.044-.085.032-.477.227.37.19-.094.057-.152-.118-.003-.712-.046-.91-.069-.321-.175-.513-.261-.894-.263-1.165-1.257-1.136-1.77-1.464-.152-.097-.011-.004-.163-.123l-.342-.229c-.508-.218-2.015-.4-2.473-.401l-98.621-.102c-1.485-.088-7.548.27-8.593-.177q-.033-.015-.064-.031l-.128-.063c-.409-.18-.524-.261-.684-.653l-.078-.397c0-.311.018-.607.122-.834.134-.296.225-.234.422-.53l.248-.421.041-.054.044-.051 2.154-2.523.043-.052.122-.164c.013-.015.03-.038.044-.053l.401-.363c.185-.177.294-.303.474-.481.392-.387.79-.597 1.319-.881l.063-.033c.572-.316.37-.472 1.086-.534.459-.04.261-.106.771-.179.815-.116 1.746-.01 2.573-.01 32.906.002 65.812.072 98.718-.002l1.893-.489a10 10 0 0 1 .513-.252c.474-.218.626-.31.922-.7.739-.973.84-.524 1.07-2.855l.097-.469c.254-.774.091-3.377.093-4.3l.003-104.255c0-.95-.213-2.323.271-3.159.501-.863.893-.54 1.754-.306.518.14.26.026.613.341.227.202.339.26.565.485l3.032 2.984.051.045c.867.784 2.088 2.211 2.941 3.072l.048.047.18.201c1.166 1.302 2.999 2.699 3.022 4.596.105.041.093.019.122.017.281-.015-.167-.07.053-.017l.014 2.578c.022 8.583-.118 98.165.004 98.813.226.579.016-.201.17.254.229.681.073.763.482 1.403.198.308.302.423.559.684.464.472.868.804 1.518.964.208.051.337.075.471.102.073.016.169.032.236.051 1.292.363 2.937.171 4.317.171 15.099-.005 105.816-.13 106.515.033.275.064.09.067.515.154l.93.116c.047.442.272.796.13 1.141l-.206.372c-.733 1.643-.378.762-1.232 1.917l-.927 1.172c-.568.615-1.035 1.273-1.661 1.872-.439.421-.905.944-1.48 1.191a6.65 6.65 0 0 1-2.625.521m-109.65 254.495c3.61-.106 3.164.39 3.325-2.817.033-1.684-.006-3.552-.006-5.068V150.63c0-2.13-.285-7.809.455-9.263.61-1.199 1.552-1.58 3.087-1.752.876-.098 13.15-.089 14.573-.089h78c3.252 0 6.428.085 9.643.082 4.946-.004 5.803-2.273 8.702-5.858 1.9-2.349 1.1-1.637 1.952-2.926.327-.494.272-1.707-.006-2.189-.306-.533-.886-.711-1.596-.855-.442-.09-.538-.185-1.025-.202-.404-.014-.84.002-1.248.002l-104.733-.008c-1.769.003-5.323.325-6.553-.749-1.489-1.301-1.268-4.071-1.225-6.076.137-6.437.01-13.022.01-19.476V33.104c0-2.599.25-7.225-.227-9.508-.463-2.217-2.498-4.029-4.076-5.629l-4.809-4.931c-.904-.967-4.416-5.33-6.295-2.925l-.039.052-.073.109-.033.058-.265 1.01c-.049.769-.037 1.608-.038 2.383l-.01 102.25c0 2.286.316 7.752-.303 9.456-.95 2.616-4.503 2.072-7.76 2.069-6.493-.005-12.985.001-19.477.001-24.332 0-48.803-.084-73.132.008-5.769.022-6.137-.191-9.933 4.592-.966 1.217-4.114 4.627-3.224 6.12.095.159.394.52.543.692.876 1.013 6.624.652 7.841.654 32.443.033 64.936-.169 97.381.052 3.618.025 6.414-.698 7.73 2.05.656 1.372.368 7.292.367 9.345v233.715c0 1.612-.045 3.263.007 4.869.017 2.532.53 2.597 4.12 2.697 2.682.042 5.59.115 8.35.032z" style="fill:#272728"/><path id="path502" d="M341.108 69.097c-6.271 2.501-12.295 5.581-18.527 8.18-2.614 1.766-7.25 1.854-8.134 5.302.144 2.59 1.666 4.887 2.3 7.385 2.405 6.931 4.059 14.102 5.36 21.311.675 3.692.793 9.322 3.126 9.426 6.005.584 12.052.11 18.075.279 10.36 0 20.72.007 31.08-.081 3.389-.683 1.075-4.635.113-6.53-5.627-11.633-12.587-22.597-20.34-32.923-3.057-3.935-6.188-7.926-9.559-11.585-.942-.732-2.294-1.307-3.494-.764" class="fil0"/><path id="path504" d="M214.321 148.53c-2.232.808-1.716 3.49-1.745 5.514-.055 2.904.503 5.671 2.144 8.312 2.896 4.219 5.866 8.393 8.785 12.514 5.529 7.878 11.055 15.748 16.52 23.67 5.272 7.31 10.264 14.856 15.572 22.134 1.465 1.804 4.153 1.26 5.695-.178 6.252-4.06 11.824-9.043 17.157-14.21 2.691-2.842 5.463-5.586 7.54-8.906 1.327-2.358-1.093-4.109-2.866-5.186-11.605-7.557-23.29-15.004-34.874-22.6-10.784-6.88-19.655-12.826-30.473-19.66-1.41-.961-2.404-1.73-3.455-1.404" class="fil0"/><path id="path506" d="M217.582 117.755c15.327-10.633 30.614-21.354 45.956-31.997 7.848-5.52 15.767-10.934 23.579-16.519 1.536-1.213.764-3.38-.401-4.815a168 168 0 0 0-10.372-11.822c-3.097-2.8-6.129-5.696-9.512-8.138-1.356-.953-2.997-.573-4.227.824-2.329 2.634-4.27 5.499-6.467 8.247-4.517 6.014-9.176 11.933-13.683 17.97-5.072 6.714-10.245 13.347-15.294 20.075-4.082 5.398-8.26 10.728-12.267 16.183-2.034 2.788-1.273 6.45-1.269 9.649.186 2.442 2.8 1.244 3.957.343" class="fil0"/><path id="path508" d="M183.961 150.916c-2.035-.769-3.994 1.174-5.85 2.361a17459 17459 0 0 1-47.279 31.173c-4.858 3.197-9.686 6.445-14.563 9.617a2.774 2.774 0 0 0-.578 4.326c3.1 4.017 6.711 7.594 10.35 11.17 3.92 3.38 7.75 6.93 12.215 9.59 2.445 1.115 4.11-1.32 5.34-3.076 4.094-5.99 8.382-11.833 12.441-17.853 4.102-5.69 8.05-11.518 12.166-17.209 3.61-5.229 7.296-10.37 10.917-15.594 1.964-2.71 4.202-5.384 5.227-8.61.348-2.233 1.043-5.385-.386-5.895" class="fil0"/><path id="path510" d="M132.216 45.611c-2.732 1.06-4.66 3.262-6.842 5.302-4.214 4.075-8.217 8.394-11.684 13.12-.607.873-1.238 2.189-.419 3.005 2.334 2.31 5.055 4.269 7.668 6.27 5.26 3.83 10.368 7.851 15.66 11.645 7.855 5.97 15.822 11.793 23.686 17.753 7.036 5.19 13.979 10.482 21.03 15.642 2.332 2.096 3.33.205 3.34-2.836-.02-4.734-.189-4.864-1.712-6.781-2.404-3.345-5.117-6.492-7.45-9.876-3.944-4.934-7.68-10.01-11.559-14.995-3.559-4.707-7.182-9.356-10.761-14.048-4.915-6.333-9.755-12.726-14.624-19.078-1.415-1.77-2.613-3.844-4.544-5.098-.62-.337-1.206-.26-1.789-.025" class="fil0"/><path id="path512" d="M107.103 177.988c6.402-3.148 12.878-6.13 19.32-9.188 9.346-4.578 19.29-9.022 27.888-13.259 2.21-.965 4.36-2.103 6.56-3.105 2.542-1.318 5.198-2.443 7.73-3.75.992-.532 3-1.202 2.949-2.332.013-1.465-2.906-1.15-4.423-1.186-23.465-.008-49.162.009-70.032.027-2.801-.035-4.537 1.064-4.128 4.191.383 2.94 1.297 6.69 2.314 9.78.849 3.075 1.96 6.092 2.933 9.095a80 80 0 0 0 3.592 8.233c.88 2.271 3.422 2.401 5.297 1.494" class="fil0"/><path id="path514" d="M230.925 148.622c4.545 2.228 9.182 4.276 13.736 6.515 11.49 5.254 21.76 10.191 32.316 15.174 5.44 2.539 10.65 4.887 15.887 7.524 1.354.606 2.91 1.021 4.32-.28 4.11-5.951 6.154-14.077 7.9-20.287.798-3.072 1.93-6.426 2.024-9.572.056-2.434-2.43-2.503-4.154-2.54-23.109.081-46.22-.01-69.329.051-4.163-.031-7.974.87-2.7 3.415" class="fil0"/><path id="path516" d="M233.425 120.945c23.526.078 48.01.02 71.528-.073 2.806.08 2.732-1.465 2.725-3.553-.43-8.63-3.423-23.54-7.558-28.238-.774-.836-2.498-.472-3.525-.053-10.612 4.737-21.915 9.934-31.616 14.232-13.276 5.866-21.068 9.174-33.706 15.039-4.3 1.879-2.187 2.863 2.152 2.646" class="fil0"/><path id="path518" d="M163.3 116.716c-5.334-2.453-10.6-5.098-15.95-7.541-9.16-4.362-17.733-8.326-26.098-12.436-4.343-2.06-8.665-4.153-12.997-6.24-2.187-.926-4.278-2.179-6.575-2.784-1.392-.209-2.288 1.32-2.738 2.413-1.661 3.533-2.656 7.326-3.758 11.059-1.042 4.744-2.039 9.494-2.775 14.305-.179 1.892-.744 4.642 1.552 5.057 3.162.474 6.469.333 9.712.389 20.094-.016 40.19.032 60.283-.024 8.282.105 6.028-1.236-.655-4.198" class="fil0"/><path id="path520" d="M182.433 170.393c-1.92 3.269-3.704 6.693-5.507 10.061-3.775 7.606-7.904 14.626-11.404 21.688-3.639 6.994-7.374 13.941-11.028 20.922-.673 1.406-1.722 3.044-.723 4.565.606.801 1.517 1.037 2.63 1.616a130 130 0 0 0 7.448 2.964c2.374.805 4.767 1.647 7.153 2.316 3.497.902 6.911 1.745 10.587 2.33 1.118.166 2.623-.327 2.748-1.62.07-1.462.248-5.587.201-8.336-.002-18.065.118-36.132-.023-54.196.004-4.252-.69-4.46-2.082-2.31" class="fil0"/><path id="path522" d="M213.539 174.652c-.074 20.089.013 40.179.017 60.266.14 1.045.58 2.155 2.126 1.876 3.766-.426 7.089-1.015 10.903-1.864a74 74 0 0 0 6.258-1.717c2.92-.924 5.84-1.906 8.663-3.092 1.367-.674 3.441-1.486 3.004-3.3-.675-2.548-2.088-4.666-3.393-7.037-1.553-2.978-3.163-5.92-4.697-8.906-1.789-3.483-3.718-6.888-5.465-10.395a938 938 0 0 1-5.368-10.235c-1.57-2.758-2.952-5.636-4.494-8.41a1056 1056 0 0 0-4.818-9.007c-2.104-3.931-2.738-3.53-2.736 1.821" class="fil0"/><path id="path524" d="M184.488 88.389c.117-19.759.03-42.977.05-62.735-.124-1.53-1.243-2.684-2.934-2.525-3.373.424-6.57 1.25-9.903 2.165-4.586 1.458-9.232 2.872-13.813 4.674-1.132.519-2.646.928-2.807 2.392-.363 1.8 1.055 3.364 1.647 5.008 1.777 3.73 3.708 7.387 5.434 11.139 2.574 5.274 5.148 10.548 7.794 15.787a111 111 0 0 0 4.237 8.652c1.191 2.81 2.724 5.476 3.946 8.28 1.363 2.62 2.56 5.34 4.034 7.894 1.348 2.276 2.27 1.806 2.315-.731" class="fil0"/><path id="path526" d="M215.816 88.23c3.106-5.853 6.266-12.92 9.178-18.867 1.021-2.27 2.197-4.48 3.186-6.768 2.749-5.769 5.5-11.528 8.293-17.275 1.774-3.776 3.615-7.52 5.405-11.287.589-1.268 1.224-3.123-.236-4.062-2.014-1.17-4.225-2.004-6.483-2.68a128 128 0 0 0-8.692-2.522c-3.06-.72-6.048-1.583-9.15-1.968-1.693-.154-3.588.328-3.685 2.104-.149 6.437.027 12.912-.029 19.364.02 13.992-.106 29.443-.017 43.434-.017 3.264.616 3.374 2.23.527" class="fil0"/><path id="path528" d="M280.388 23.461c-2.587.593-3.619 3.35-5.164 5.21-1.459 1.85.204 4.126 1.887 5.107 2.53 2.025 5.017 4.128 7.369 6.361 2.935 3.025 6.064 5.868 8.741 9.131 2.396 2.585 4.335 5.562 6.708 8.158 1.517 1.518 3.717.432 5.14-.631 4.218-3.016 8.591-5.832 12.605-9.129.967-1.65-.365-3.32-1.686-4.12-9.489-7.186-19.723-13.53-30.43-18.722-1.528-.657-2.756-1.552-4.454-1.502z" class="fil0"/><path id="path530" d="M115.365 24.369c-2.49.776-5.083 2.42-6.99 3.41a176 176 0 0 0-15.553 9.287c-2.89 1.827-5.8 3.74-8.438 5.915-1.38 1.881 1.063 3.888 2.552 4.793a290 290 0 0 0 10.533 7.884c1.437 1.262 3.84.757 4.732-.91 3.837-4.92 7.92-9.67 12.56-13.857 1.55-1.67 3.287-3.137 4.997-4.632 1.37-1.247 3.468-2.397 3.466-4.49-.237-1.995-1.947-3.687-3.479-5.517-1.378-1.58-2.507-2.551-4.38-1.883" class="fil0"/><path id="path532" d="M193.522 392.252c-2.673-.109-2.823-.619-2.889-2.656-.052-1.606-.007-3.257-.007-4.869V151.012c.001-2.053.289-7.973-.368-9.345-1.315-2.748-4.111-2.025-7.729-2.05-32.445-.221-64.938-.019-97.381-.052-1.217-.002-6.965.359-7.841-.654-.149-.172-.448-.533-.543-.692-.89-1.493 2.258-4.903 3.224-6.12 3.796-4.783 4.164-4.57 9.933-4.592 24.329-.092 48.8-.008 73.132-.008 6.492 0 12.984-.006 19.476-.001 3.258.003 6.811.547 7.761-2.069.619-1.704.302-7.17.302-9.456l.011-102.25c.001-.775-.011-1.614.038-2.383l.265-1.01.033-.058.073-.109c.01-.015.028-.038.039-.052 1.879-2.405 5.391 1.958 6.295 2.925l4.809 4.931c1.578 1.6 3.613 3.412 4.076 5.629.477 2.283.226 6.909.226 9.508v68.167c0 6.454.128 13.039-.009 19.476-.043 2.005-.264 4.775 1.225 6.076 1.23 1.074 4.784.752 6.553.749l104.733.008c.407 0 .844-.016 1.248-.002.487.017.583.112 1.025.202.71.144 1.29.322 1.596.855.278.482.333 1.695.006 2.189-.853 1.289-.053.577-1.952 2.926-2.899 3.585-3.756 5.854-8.702 5.858-3.215.003-6.391-.082-9.643-.082h-78c-1.423 0-13.697-.009-14.573.089-1.535.172-2.477.553-3.087 1.752-.74 1.454-.455 7.133-.455 9.263v233.81c0 1.516.141 5.841-.235 7.16-.218.768-.561.584-.63.658.702-.01.79-.273.84-.37l.142-.431.027-.069.121-.452c.101-1.215-.004-6.996-.004-8.309V149.675c0-1.465-.314-5.237.096-6.396.108-.308.063-.546.101-.854.055-.436.069-.224.162-.507q.011-.036.022-.073l.153-.42c.17-.347.463-.633.755-.868.269-.216.609-.294.929-.407.029-.01.107-.045.137-.054.511-.163 1.188.014 1.746-.068.45-.066.312-.192.954-.192 1.74.002.705.197 2.87.196.644 0 1.524.138 2.129-.066.924-.311 2.509-.124 3.599-.124 12.42 0 93.48.129 94.096-.04l.685-.174c.497-.11 1.55-.66 1.885-.979l1.225-1.162c.011-.018.023-.044.034-.061l1.146-1.337.036-.058c.017-.023.068-.084.087-.105l1.335-1.72c.099-.115.288-.262.388-.376l.085-.106.206-.367c.331-.476.388-.358.73-.893l.949-1.533c.524-1.035.171-1.264.509-1.4v-.382c-.317-.128-.177-.393-.375-.771a2 2 0 0 0-.069-.122l-.324-.344-.059-.037-1.247-.471-.076-.019-.14-.052c-.714-.241-8.533-.094-9.358-.094-33.894 0-67.789-.086-101.683.006l-2.528-.813c-.042-.04-.113-.119-.188-.194l-.691-1.028c-.136-.289-.07-.8-.186-1.15-.284-.858-.125-5.652-.125-6.654 0-13.713.114-92.641-.019-93.257-.083-.392-.137-.276-.171-.688l-.089-.484c-.009-.02-.023-.043-.032-.063l-.303-.748c-.114-.346-.328-.558-.497-.839l-.71-1.009a2 2 0 0 0-.132-.154l-3.202-3.29c-.011-.019-.022-.045-.032-.063l-1.353-1.417c-.601-.601-5.003-5.168-5.555-5.519l-1.77-.904c-.318-.114-.682-.178-1.037-.031l-.128.064-.123.068c-.398.241-.577.524-.784.788l-.196.428c-.164.345-.193.526-.24.886-.067.508-.051.123-.048 1.594.014 7.731.11 111.15-.018 111.78-.059.291-.261.873-.51 1.208l-.264.405c-.01.018-.022.045-.033.062-.147.217-.196.2-.378.29l-.066.03c-.44.209-.804.464-1.308.506l-.688.171c-.506.109-85.554.056-100.9.014a4 4 0 0 0-.372.01l-.915.23q-.037.01-.073.022l-1.088.44c-.34.169-.683.522-.763.573-.68.432-1.663 1.351-2.067 2.039l-1.337 1.719c-.086.147.001.034-.111.175l-.495.65c-.185.294-.439.4-.631.706-.386.614-1.014 1.234-1.309 1.841l-.094.192-.032.064-.352.794q-.011.037-.021.074l-.134 1.421q.011.037.024.072t.029.067c.13.317.363.594.628.803.221.174-.134-.078.112.079l2.227.638c4.512-.04 9.044-.001 13.558-.001h88.12q.814.002 1.627-.004c.649-.006.957.303 1.454.132.374-.13 1.086-.127 1.601-.132l.761.099c.27.097 1.114.047 1.464.159l.895.345 1.27 1.785.022.075.077.208c.008.023.02.046.027.069l.067.315c.098 1.176-.004 6.112-.004 7.642v237.438c0 .573.027 1.137.074 1.775l.261 1.9c.032.322.257.5.738.534 1.09.05 1.944.061 2.187.07" style="fill:#807f80"/><path id="path534" d="M181.51 5.756c-5.477.371-20.314 2.426-32.75 5.971-1.767.453-2.3.7-2.965 1.846-.592 1.109-.013 2.412.662 3.34.956 1.054 2.492 1.143 3.746.656 6.133-2.72 12.26-4.518 18.207-6.235 4.48-1.222 9.338-2.479 13.498-3.213 1.935-.49 1.614-2.476-.398-2.365" class="fil0"/><path id="path536" d="M245.327 15.937c1.424.579 2.941 1.466 4.522.928 1.756-.715 2.705-3.616 1.32-5.044-11.305-3.292-27.903-6.007-37.994-6.456-1.05.007-1.003 1.798-.038 1.864 12.016 2.073 21.828 4.89 32.19 8.708" class="fil0"/></g></g></g></g></svg>